<?xml version="1.0" encoding="utf-8"?>
<!-- Generator: Adobe Illustrator 16.0.0, SVG Export Plug-In . SVG Version: 6.00 Build 0)  -->
<!DOCTYPE svg PUBLIC "-//W3C//DTD SVG 1.1//EN" "http://www.w3.org/Graphics/SVG/1.1/DTD/svg11.dtd">
<svg version="1.1" id="Layer_1" xmlns="http://www.w3.org/2000/svg" xmlns:xlink="http://www.w3.org/1999/xlink" x="0px" y="0px"
	 width="186.5px" height="69.5px" viewBox="10.667 -14.333 186.5 69.5" enable-background="new 10.667 -14.333 186.5 69.5"
	 xml:space="preserve">
<g id="Layer_4" display="none">
	<path display="inline" fill="#FFFFFF" d="M170.148,17.94c-3.716-0.685-5.985-1.312-7.349-2.673c-1.359-1.36-1.987-3.63-2.674-7.348
		c-0.06-0.308-0.319-0.528-0.635-0.528c-0.312,0-0.58,0.226-0.638,0.528c-0.687,3.718-1.312,5.985-2.673,7.348
		c-1.361,1.36-3.635,1.988-7.35,2.673c-0.308,0.06-0.526,0.322-0.526,0.638c0,0.312,0.224,0.578,0.526,0.635
		c3.715,0.685,5.984,1.312,7.35,2.673c1.357,1.36,1.986,3.632,2.673,7.348c0.058,0.308,0.319,0.528,0.638,0.528
		c0.312,0,0.575-0.224,0.635-0.528c0.687-3.716,1.312-5.984,2.674-7.348c1.359-1.357,3.633-1.988,7.349-2.673
		c0.308-0.057,0.526-0.321,0.526-0.635C170.674,18.263,170.456,17.998,170.148,17.94z"/>
</g>
<g id="Layer_2" display="none">
	<path display="inline" fill="none" stroke="#000000" stroke-width="8" stroke-linecap="round" stroke-miterlimit="10" d="
		M-13.007-45.615C-6.302-55.44-2.382-67.318-2.382-80.111c0-33.843-27.435-61.275-61.277-61.275
		c-33.842,0-61.276,27.436-61.276,61.275c0,33.843,27.435,61.276,61.276,61.276c14.613,0,28.031-5.115,38.562-13.652"/>
</g>
<path fill="#FFFFFF" d="M13.696,31.99c0-10.24,7.393-17.233,16.635-17.233c4.695,0,8.642,1.848,11.589,5.244l-1.249,1.1
	c-2.348-2.947-6.194-4.845-10.34-4.845c-8.343,0-14.886,6.343-14.886,15.735c0,9.292,6.543,15.736,14.886,15.736
	c4.146,0,7.992-1.898,10.34-4.846l1.298,1.049c-3.147,3.547-6.943,5.295-11.639,5.295C21.089,49.225,13.696,42.231,13.696,31.99z"/>
<path fill="#FFFFFF" d="M72.493,48.625V32.24H49.764v16.386h-1.599V15.307h1.599v15.436h22.729V15.307h1.599v33.318H72.493z"/>
<path fill="#FFFFFF" d="M107.361,48.625l-3.694-8.941H85.082l-3.696,8.941h-1.848l13.887-33.318h1.897l13.888,33.318H107.361z
	 M94.374,17.155l-8.692,21.03h17.384L94.374,17.155z"/>
<path fill="#FFFFFF" d="M137.454-11.261c-16.885,0-29.14,13.244-29.14,31.492c0,18.249,12.255,31.494,29.14,31.494
	s29.143-13.245,29.143-31.494C166.594,1.983,154.338-11.261,137.454-11.261z M137.454,44.204c-12.679,0-21.197-9.634-21.197-23.973
	c0-14.337,8.521-23.971,21.197-23.971c12.683,0,21.2,9.633,21.2,23.971C158.654,34.57,150.133,44.204,137.454,44.204z"/>
<path fill="#FFFFFF" d="M169.596,43.93l1.298-1.149c2.049,2.498,5.545,4.946,10.34,4.946c7.692,0,9.642-4.396,9.642-7.544
	c0-10.99-20.229-5.545-20.229-16.935c0-5.395,4.943-8.491,10.438-8.491c4.896,0,8.442,1.798,10.791,4.695l-1.25,1.148
	c-2.348-3.046-5.691-4.345-9.541-4.345c-4.846,0-8.688,2.897-8.688,6.993c0,9.492,20.229,4.497,20.229,16.935
	c0,3.747-2.396,9.042-11.391,9.042C176.04,49.225,171.995,46.976,169.596,43.93z"/>
</svg>
