<?xml version="1.0" encoding="utf-8"?>
<!-- Generator: Adobe Illustrator 16.0.0, SVG Export Plug-In . SVG Version: 6.00 Build 0)  -->
<!DOCTYPE svg PUBLIC "-//W3C//DTD SVG 1.1//EN" "http://www.w3.org/Graphics/SVG/1.1/DTD/svg11.dtd">
<svg version="1.1" id="Layer_1" xmlns="http://www.w3.org/2000/svg" xmlns:xlink="http://www.w3.org/1999/xlink" x="0px" y="0px"
	 width="284px" height="99px" viewBox="0 0 284 99" enable-background="new 0 0 284 99" xml:space="preserve">
<g id="Layer_1_3_" display="none">
	<g id="Layer_1_2_" display="inline">
		<g id="Layer_1_1_">
			<g>
				<path d="M121.5,243C54.505,243,0,188.495,0,121.5S54.505,0,121.5,0S243,54.505,243,121.5S188.495,243,121.5,243z M121.5,18
					C64.43,18,18,64.43,18,121.5S64.43,225,121.5,225c57.07,0,103.5-46.43,103.5-103.5S178.57,18,121.5,18z"/>
			</g>
		</g>
		<g id="Layer_2">
		</g>
	</g>
	<g id="Layer_2_1_" display="inline">
		<g id="Layer_3_2_">
			<path d="M170.268,83.412c-17.787,0-45.289,24.003-53.039,31.109c-0.503,0.299-0.977,0.645-1.414,1.053
				c-14.305,13.359-34.845,27.777-43.081,27.777c-12.046,0-21.847-9.803-21.847-21.849s9.8-21.849,21.847-21.849
				c1.822,0,9.081,0.986,26.084,13.686c1.415,1.059,4.556,3.391,4.556,3.391l12.738-10.572c0,0-5.829-4.529-7.569-5.826
				C93.303,88.945,81.589,83.42,72.735,83.42c-20.999,0-38.083,17.083-38.083,38.084c0,20.998,17.084,38.082,38.083,38.082
				c17.763,0,45.281-24.002,53.039-31.104c0.502-0.301,0.979-0.648,1.414-1.053c14.297-13.359,34.832-27.783,43.08-27.783
				c12.045,0,21.846,9.801,21.846,21.851c0,12.047-9.801,21.849-21.846,21.849c-1.801,0-8.961-0.969-25.68-13.382
				c-1.408-1.047-4.648-3.544-4.648-3.544l-12.571,10.436c0,0,3.944,3.479,7.539,6.144c15.242,11.317,26.479,16.588,35.359,16.588
				c21,0,38.082-17.087,38.082-38.092C208.354,100.498,191.268,83.412,170.268,83.412z"/>
		</g>
	</g>
</g>
<g id="Layer_2_2_" display="none">
	<g display="inline">
		<path fill="none" stroke="#FFFFFF" stroke-width="14" stroke-linecap="round" stroke-linejoin="round" stroke-miterlimit="10" d="
			M234.809,121.505c0,62.582-50.727,113.31-113.309,113.31c-62.581,0-113.308-50.728-113.308-113.31
			C8.192,58.928,58.919,8.196,121.5,8.196C184.082,8.196,234.809,58.928,234.809,121.505z"/>
		<g>
			
				<line fill="none" stroke="#FFFFFF" stroke-width="14" stroke-linecap="round" stroke-linejoin="round" stroke-miterlimit="10" x1="180.051" y1="60.425" x2="60.709" y2="179.773"/>
			
				<path fill="none" stroke="#FFFFFF" stroke-width="14" stroke-linecap="round" stroke-linejoin="round" stroke-miterlimit="10" d="
				M76.392,163.841c-11.623-11.622,0.481-47.065,29.348-75.921c14.836-14.848,31.081-25.576,40.931-30.458v36.435"/>
			
				<line fill="none" stroke="#FFFFFF" stroke-width="14" stroke-linecap="round" stroke-linejoin="round" stroke-miterlimit="10" x1="114.13" y1="126.432" x2="161.451" y2="126.432"/>
			
				<path fill="none" stroke="#FFFFFF" stroke-width="14" stroke-linecap="round" stroke-linejoin="round" stroke-miterlimit="10" d="
				M94.424,146.137h52.247c-27.596,25.096-60.272,27.865-70.279,17.85"/>
			
				<path fill="none" stroke="#FFFFFF" stroke-width="14" stroke-linecap="round" stroke-linejoin="round" stroke-miterlimit="10" d="
				M180.154,60.229c8.988,9,6.92,26.791-4.375,46.498h-42.038"/>
		</g>
	</g>
</g>
<path fill="#231F20" d="M12.611,128.127c0-14.713,10.623-24.762,23.902-24.762c6.747,0,12.417,2.654,16.652,7.535l-1.794,1.58
	c-3.374-4.234-8.9-6.963-14.858-6.963c-11.987,0-21.39,9.115-21.39,22.609c0,13.352,9.403,22.611,21.39,22.611
	c5.958,0,11.484-2.729,14.858-6.963l1.866,1.508c-4.522,5.096-9.977,7.607-16.724,7.607
	C23.234,152.891,12.611,142.842,12.611,128.127z"/>
<path fill="#231F20" d="M97.095,152.029v-23.543H64.436v23.543h-2.297v-47.875h2.297v22.179h32.659v-22.179h2.297v47.875H97.095z"/>
<path fill="#231F20" d="M147.195,152.029l-5.309-12.848h-26.702l-5.312,12.848h-2.656l19.955-47.875h2.727l19.954,47.875H147.195z
	 M128.535,106.811l-12.489,30.217h24.979L128.535,106.811z"/>
<path fill="#231F20" d="M190.434,67.072c-12,0-22.303,4.472-29.793,12.933c-7.083,8-10.983,19.089-10.983,31.226
	s3.9,23.228,10.983,31.228c7.49,8.461,17.793,12.933,29.793,12.933c23.629,0,40.779-18.572,40.779-44.16
	C231.213,85.644,214.062,67.072,190.434,67.072z M190.434,146.768c-18.871,0-31.551-14.281-31.551-35.537
	s12.68-35.537,31.551-35.537c18.874,0,31.555,14.281,31.555,35.537C221.988,132.154,209.013,146.768,190.434,146.768z"/>
<path fill="#231F20" d="M236.62,145.283l1.864-1.652c2.943,3.59,7.968,7.107,14.857,7.107c11.055,0,13.854-6.316,13.854-10.84
	c0-15.791-29.069-7.967-29.069-24.332c0-7.752,7.106-12.203,15.002-12.203c7.035,0,12.131,2.584,15.504,6.748l-1.795,1.65
	c-3.373-4.379-8.183-6.244-13.709-6.244c-6.963,0-12.487,4.162-12.487,10.049c0,13.638,29.067,6.459,29.067,24.332
	c0,5.385-3.444,12.992-16.365,12.992C245.878,152.891,240.064,149.66,236.62,145.283z"/>
</svg>
