<?xml version="1.0" encoding="utf-8"?>
<!-- Generator: Adobe Illustrator 16.0.0, SVG Export Plug-In . SVG Version: 6.00 Build 0)  -->
<!DOCTYPE svg PUBLIC "-//W3C//DTD SVG 1.1//EN" "http://www.w3.org/Graphics/SVG/1.1/DTD/svg11.dtd">
<svg version="1.1" id="Layer_1" xmlns="http://www.w3.org/2000/svg" xmlns:xlink="http://www.w3.org/1999/xlink" x="0px" y="0px"
	 width="164px" height="133.5px" viewBox="50 -30.5 164 133.5" enable-background="new 50 -30.5 164 133.5" xml:space="preserve">
<g id="Layer_1_3_" display="none">
	<g id="Layer_1_2_" display="inline">
		<g id="Layer_1_1_">
			<g>
				<path d="M121.5,243C54.505,243,0,188.495,0,121.5S54.505,0,121.5,0S243,54.505,243,121.5S188.495,243,121.5,243z M121.5,18
					C64.43,18,18,64.43,18,121.5S64.43,225,121.5,225c57.07,0,103.5-46.43,103.5-103.5S178.57,18,121.5,18z"/>
			</g>
		</g>
		<g id="Layer_2">
		</g>
	</g>
	<g id="Layer_2_1_" display="inline">
		<g id="Layer_3_2_">
			<path d="M170.268,83.412c-17.787,0-45.289,24.003-53.039,31.109c-0.503,0.299-0.977,0.645-1.414,1.053
				c-14.305,13.359-34.845,27.777-43.081,27.777c-12.046,0-21.847-9.805-21.847-21.851s9.8-21.851,21.847-21.851
				c1.822,0,9.081,0.986,26.084,13.688c1.415,1.061,4.556,3.393,4.556,3.393l12.738-10.572c0,0-5.829-4.529-7.569-5.826
				C93.303,88.945,81.589,83.42,72.735,83.42c-20.999,0-38.083,17.083-38.083,38.084c0,20.998,17.084,38.082,38.083,38.082
				c17.763,0,45.281-24.002,53.039-31.104c0.502-0.301,0.979-0.648,1.414-1.053c14.297-13.359,34.832-27.783,43.08-27.783
				c12.045,0,21.846,9.801,21.846,21.851c0,12.047-9.801,21.849-21.846,21.849c-1.801,0-8.961-0.969-25.68-13.382
				c-1.408-1.047-4.648-3.544-4.648-3.544l-12.571,10.436c0,0,3.944,3.479,7.539,6.146c15.242,11.315,26.479,16.588,35.359,16.588
				c21,0,38.082-17.087,38.082-38.092C208.354,100.498,191.268,83.412,170.268,83.412z"/>
		</g>
	</g>
</g>
<g id="Layer_2_2_" display="none">
	<g display="inline">
		<path fill="none" stroke="#FFFFFF" stroke-width="14" stroke-linecap="round" stroke-linejoin="round" stroke-miterlimit="10" d="
			M234.809,121.505c0,62.582-50.727,113.31-113.309,113.31c-62.581,0-113.308-50.728-113.308-113.31
			C8.192,58.928,58.919,8.196,121.5,8.196C184.082,8.196,234.809,58.928,234.809,121.505z"/>
		<g>
			
				<line fill="none" stroke="#FFFFFF" stroke-width="14" stroke-linecap="round" stroke-linejoin="round" stroke-miterlimit="10" x1="180.051" y1="60.425" x2="60.709" y2="179.773"/>
			
				<path fill="none" stroke="#FFFFFF" stroke-width="14" stroke-linecap="round" stroke-linejoin="round" stroke-miterlimit="10" d="
				M76.392,163.841c-11.623-11.622,0.481-47.065,29.348-75.921c14.836-14.848,31.081-25.576,40.931-30.458v36.435"/>
			
				<line fill="none" stroke="#FFFFFF" stroke-width="14" stroke-linecap="round" stroke-linejoin="round" stroke-miterlimit="10" x1="114.13" y1="126.432" x2="161.451" y2="126.432"/>
			
				<path fill="none" stroke="#FFFFFF" stroke-width="14" stroke-linecap="round" stroke-linejoin="round" stroke-miterlimit="10" d="
				M94.424,146.137h52.247c-27.596,25.096-60.272,27.865-70.279,17.85"/>
			
				<path fill="none" stroke="#FFFFFF" stroke-width="14" stroke-linecap="round" stroke-linejoin="round" stroke-miterlimit="10" d="
				M180.154,60.229c8.988,9,6.92,26.791-4.375,46.498h-42.038"/>
		</g>
	</g>
</g>
<path display="none" fill="#231F20" d="M12.611,65.127c0-14.713,10.623-24.762,23.902-24.762c6.747,0,12.417,2.654,16.652,7.535
	l-1.794,1.58c-3.374-4.234-8.9-6.963-14.858-6.963c-11.987,0-21.39,9.114-21.39,22.608c0,13.354,9.403,22.609,21.39,22.609
	c5.958,0,11.484-2.729,14.858-6.963l1.866,1.509c-4.522,5.097-9.977,7.606-16.724,7.606C23.234,89.891,12.611,79.842,12.611,65.127z
	"/>
<path display="none" fill="#231F20" d="M97.095,89.029V65.486H64.436v23.543h-2.297V41.154h2.297v22.179h32.659V41.154h2.297v47.875
	H97.095z"/>
<path display="none" fill="#231F20" d="M147.195,89.029l-5.309-12.848h-26.702l-5.312,12.848h-2.656l19.955-47.875h2.727
	l19.954,47.875H147.195z M128.535,43.811l-12.489,30.216h24.979L128.535,43.811z"/>
<path display="none" fill="#231F20" d="M190.434,4.072c-12,0-22.303,4.472-29.793,12.933c-7.082,8-10.981,19.089-10.981,31.226
	c0,12.138,3.899,23.229,10.981,31.229c7.49,8.461,17.793,12.935,29.793,12.935c23.629,0,40.779-18.572,40.779-44.161
	C231.213,22.646,214.062,4.072,190.434,4.072z M190.434,83.768c-18.871,0-31.551-14.281-31.551-35.537
	c0-21.256,12.68-35.537,31.551-35.537c18.875,0,31.555,14.281,31.555,35.537C221.988,69.154,209.014,83.768,190.434,83.768z"/>
<path display="none" fill="#231F20" d="M236.62,82.283l1.864-1.652c2.942,3.59,7.968,7.107,14.855,7.107
	c11.057,0,13.854-6.316,13.854-10.84c0-15.791-29.068-7.967-29.068-24.332c0-7.752,7.105-12.204,15.002-12.204
	c7.035,0,12.131,2.584,15.504,6.748l-1.795,1.65c-3.373-4.38-8.184-6.244-13.709-6.244c-6.963,0-12.486,4.162-12.486,10.049
	c0,13.638,29.066,6.459,29.066,24.332c0,5.385-3.443,12.992-16.365,12.992C245.878,89.891,240.064,86.66,236.62,82.283z"/>
<g>
	<defs>
		<path id="SVGID_1_" d="M194.038,56.501c-2,0-3.898,0.427-5.62,1.183c-0.007,0.002-0.014,0.003-0.021,0.005
			c-12.62,3.282-12.004-9.737-11.449-14.167c0.065-0.4,0.122-0.805,0.179-1.208c0.025-0.146,0.041-0.226,0.041-0.226
			s-0.011-0.004-0.013-0.004c0.353-2.59,0.55-5.23,0.55-7.917c0-32.217-26.117-58.333-58.334-58.333S61.036,1.95,61.036,34.167
			S87.153,92.5,119.37,92.5c19.132,0,36.112-9.209,46.75-23.438c0,0,0.001,0,0.001-0.001c9.834-6.688,13.917,1.439,13.917,1.439
			c0,7.731,6.269,14,14,14s14-6.269,14-14S201.77,56.501,194.038,56.501z"/>
	</defs>
	<clipPath id="SVGID_2_">
		<use xlink:href="#SVGID_1_"  overflow="visible"/>
	</clipPath>
	<g clip-path="url(#SVGID_2_)">
		
			<image overflow="visible" width="465" height="429" id="G7n4X2_1_" xlink:href="403D1FD3E400A240.jpg"  transform="matrix(0.4578 0 0 0.4578 43.6914 -58.04)">
		</image>
	</g>
</g>
<g>
	<path fill="#FFFFFF" d="M150.14,60.119l-0.77,0.77l-1.729,1.538l-1.154,0.865l-1.826,1.346l-1.152,0.769l-1.924,1.058l-1.249,0.673
		l-2.211,1.058l-1.441,0.48l-1.634,0.479l-1.635,0.289l-2.403,0.48l-3.363,0.385l-1.729,0.096l-2.404,0.193h-4.997l-1.636-0.097
		l-1.634-0.192l-1.634-0.289l-1.634-0.384l-1.442-0.481l-4.325-1.152l-2.115-0.77l-1.249-0.576l-1.826-1.059l-1.153-0.864
		l-1.25-0.865l-1.347-0.864l-2.498-2.115l-1.153-1.152l-1.058-1.25l-1.058-1.442l-0.865-1.346l-0.77-1.347l-0.672-1.346
		l-0.961-2.018l-1.442-4.037l-0.672-1.922l-0.962-2.885l-0.192-1.441l-0.096-2.211l0.096-1.442l0.097-1.538v-1.634l0.191-3.269
		l0.097-1.538l0.287-1.442l0.386-2.115l0.384-1.442l0.481-1.442l0.48-1.345l0.673-1.922l0.674-1.346l0.672-1.442l0.768-1.442
		l0.866-1.441l0.865-1.345l0.961-1.25l1.058-1.346l1.153-1.25l1.154-1.057l1.248-1.057l1.154-0.962l3.075-2.114l1.25-0.769
		l1.346-0.769l2.884-1.346l1.634-0.577l1.538-0.48l3.269-0.769l1.634-0.288l1.634-0.193l2.98-0.192l2.115-0.192l1.441,0.096
		l2.114,0.096l3.557,0.48l1.346,0.289l2.211,0.385l3.364,0.961l1.346,0.577l2.115,1.25l1.346,0.77l2.498,1.73l2.98,2.115
		l1.058,0.769l0.577,0.48l0.672,0.673l0.192,0.769l-0.097,0.769l-0.575,0.769l-0.866,1.058l-1.058,1.057l-1.056,0.961l-1.06,0.865
		l-1.057,1.058l-1.635,1.922l-1.057,1.153l-0.48,0.481l-0.864,0.769l-0.674,0.289l-0.674,0.096l-0.672-0.192l-1.058-0.577
		l-1.825-1.345l-1.25-0.673l-2.115-0.961l-1.345-0.48l-2.116-0.577l-1.441-0.288l-2.402-0.193h-1.538l-2.114,0.193l-1.539,0.384
		l-2.114,0.673l-1.441,0.577l-1.25,0.48l-1.922,0.961l-1.346,0.961l-0.673,0.576l-1.154,1.25l-0.864,1.345l-0.673,1.25l-0.674,1.346
		l-0.576,1.442l-0.48,1.538l-0.289,1.634l-0.192,1.442l-0.191,2.884v1.538l0.096,2.402l0.096,1.442l0.481,2.21l0.48,1.442
		l0.673,1.634l0.77,1.441l1.441,2.115l1.058,1.153l1.826,1.538l1.248,0.865l1.924,0.961l1.441,0.576l2.115,0.578l1.537,0.287
		l2.308,0.096h2.21l1.347-0.287l0.769-0.192l1.442-0.481l2.402-0.864l1.538-0.673l1.443-0.674l1.249-0.672l1.825-1.154l1.25-0.961
		l0.961-0.673l0.576-0.192l0.866,0.192l1.058,0.673l1.056,0.961l0.386,0.577l0.961,1.058l1.538,1.922l0.961,1.154l2.597,2.979
		l0.863,1.153l0.481,0.48l0.48,0.865V60.119z"/>
</g>
</svg>
