<?xml version="1.0" encoding="utf-8"?>
<!-- Generator: Adobe Illustrator 16.0.0, SVG Export Plug-In . SVG Version: 6.00 Build 0)  -->
<!DOCTYPE svg PUBLIC "-//W3C//DTD SVG 1.1//EN" "http://www.w3.org/Graphics/SVG/1.1/DTD/svg11.dtd">
<svg version="1.1" id="Layer_1" xmlns="http://www.w3.org/2000/svg" xmlns:xlink="http://www.w3.org/1999/xlink" x="0px" y="0px"
	 width="189.333px" height="69.333px" viewBox="0 0 189.333 69.333" enable-background="new 0 0 189.333 69.333"
	 xml:space="preserve">
<g id="Layer_4" display="none">
	<path display="inline" fill="#FFFFFF" d="M170.148,17.94c-3.716-0.685-5.985-1.312-7.349-2.673c-1.359-1.36-1.987-3.63-2.674-7.348
		c-0.06-0.308-0.319-0.528-0.635-0.528c-0.312,0-0.58,0.226-0.638,0.528c-0.687,3.718-1.312,5.985-2.673,7.348
		c-1.361,1.36-3.635,1.988-7.35,2.673c-0.308,0.06-0.526,0.322-0.526,0.638c0,0.312,0.224,0.578,0.526,0.635
		c3.715,0.685,5.984,1.312,7.35,2.673c1.357,1.36,1.986,3.632,2.673,7.348c0.058,0.308,0.319,0.528,0.638,0.528
		c0.312,0,0.575-0.224,0.635-0.528c0.687-3.716,1.312-5.984,2.674-7.348c1.359-1.357,3.633-1.988,7.349-2.673
		c0.308-0.057,0.526-0.321,0.526-0.635C170.674,18.263,170.456,17.998,170.148,17.94z"/>
</g>
<g id="Layer_2" display="none">
	<path display="inline" fill="none" stroke="#000000" stroke-width="8" stroke-linecap="round" stroke-miterlimit="10" d="
		M-13.007-45.615C-6.302-55.44-2.382-67.318-2.382-80.111c0-33.843-27.435-61.275-61.277-61.275
		c-33.842,0-61.276,27.436-61.276,61.275c0,33.843,27.435,61.276,61.276,61.276c14.613,0,28.031-5.115,38.562-13.652"/>
</g>
<path fill="#231F20" d="M4.403,44.25c0-10.239,7.393-17.232,16.635-17.232c4.695,0,8.642,1.848,11.589,5.244l-1.249,1.1
	c-2.348-2.947-6.194-4.845-10.34-4.845c-8.343,0-14.886,6.343-14.886,15.735c0,9.293,6.543,15.736,14.886,15.736
	c4.146,0,7.992-1.898,10.34-4.846l1.298,1.049c-3.147,3.547-6.943,5.295-11.639,5.295C11.796,61.487,4.403,54.493,4.403,44.25z"/>
<path fill="#231F20" d="M63.2,60.887V44.5H40.471v16.387h-1.599V27.568h1.599v15.436H63.2V27.568h1.599v33.319H63.2z"/>
<path fill="#231F20" d="M98.068,60.887l-3.694-8.941H75.789l-3.696,8.941h-1.848l13.887-33.319h1.897l13.888,33.319H98.068z
	 M85.081,29.416l-8.692,21.03h17.384L85.081,29.416z"/>
<path fill="#231F20" d="M128.161,1c-16.885,0-29.14,13.244-29.14,31.492c0,18.249,12.255,31.495,29.14,31.495
	s29.143-13.246,29.143-31.495C157.301,14.244,145.045,1,128.161,1z M128.161,56.465c-12.679,0-21.197-9.635-21.197-23.973
	c0-14.337,8.521-23.971,21.197-23.971c12.683,0,21.2,9.633,21.2,23.971C149.361,46.831,140.84,56.465,128.161,56.465z"/>
<path fill="#231F20" d="M160.303,56.192l1.298-1.15c2.049,2.498,5.545,4.947,10.34,4.947c7.692,0,9.642-4.396,9.642-7.545
	c0-10.99-20.229-5.545-20.229-16.935c0-5.395,4.943-8.491,10.438-8.491c4.896,0,8.442,1.798,10.791,4.695l-1.25,1.148
	c-2.348-3.046-5.691-4.345-9.541-4.345c-4.846,0-8.688,2.897-8.688,6.993c0,9.491,20.229,4.497,20.229,16.935
	c0,3.748-2.396,9.043-11.391,9.043C166.747,61.487,162.702,59.237,160.303,56.192z"/>
</svg>
